<?xml version="1.0" encoding="UTF-8" standalone="no"?>
<!DOCTYPE svg PUBLIC "-//W3C//DTD SVG 1.1//EN"
 "http://www.w3.org/Graphics/SVG/1.1/DTD/svg11.dtd">
<!-- Generated by graphviz version 2.47.0 (20210316.0004)
 -->
<!-- Title: dbml Pages: 1 -->
<svg width="1041pt" height="2291pt"
 viewBox="0.00 0.00 1041.02 2290.77" xmlns="http://www.w3.org/2000/svg" xmlns:xlink="http://www.w3.org/1999/xlink">
<g id="graph0" class="graph" transform="scale(1 1) rotate(0) translate(4 2286.77)">
<title>dbml</title>
<!-- notes -->
<g id="notes" class="node">
<title>notes</title>
<ellipse fill="none" stroke="black" stroke-width="0" cx="790.48" cy="-948.81" rx="242.58" ry="384.83"/>
<polygon fill="#1d71b8" stroke="transparent" points="621.48,-1158.81 621.48,-1218.81 960.48,-1218.81 960.48,-1158.81 621.48,-1158.81"/>
<polygon fill="none" stroke="#29235c" points="621.48,-1158.81 621.48,-1218.81 960.48,-1218.81 960.48,-1158.81 621.48,-1158.81"/>
<text text-anchor="start" x="689.6" y="-1180.01" font-family="Helvetica,sans-Serif" font-weight="bold" font-size="32.00" fill="#ffffff"> &#160;&#160;&#160;&#160;&#160;&#160;notes &#160;&#160;&#160;&#160;&#160;&#160;</text>
<polygon fill="#e7e2dd" stroke="transparent" points="621.48,-1098.81 621.48,-1158.81 960.48,-1158.81 960.48,-1098.81 621.48,-1098.81"/>
<polygon fill="none" stroke="#29235c" points="621.48,-1098.81 621.48,-1158.81 960.48,-1158.81 960.48,-1098.81 621.48,-1098.81"/>
<text text-anchor="start" x="632.48" y="-1120.01" font-family="Helvetica,sans-Serif" font-weight="bold" font-size="32.00" fill="#29235c">id</text>
<text text-anchor="start" x="657.37" y="-1120.01" font-family="Helvetica,sans-Serif" font-size="32.00" fill="#29235c"> &#160;&#160;&#160;</text>
<text text-anchor="start" x="851.68" y="-1120.01" font-family="Helvetica,sans-Serif" font-style="italic" font-size="32.00" fill="#29235c">integer</text>
<polygon fill="#e7e2dd" stroke="transparent" points="621.48,-1038.81 621.48,-1098.81 960.48,-1098.81 960.48,-1038.81 621.48,-1038.81"/>
<polygon fill="none" stroke="#29235c" points="621.48,-1038.81 621.48,-1098.81 960.48,-1098.81 960.48,-1038.81 621.48,-1038.81"/>
<text text-anchor="start" x="632.48" y="-1059.01" font-family="Helvetica,sans-Serif" font-size="32.00" fill="#29235c">path &#160;&#160;&#160;</text>
<text text-anchor="start" x="858.82" y="-1060.01" font-family="Helvetica,sans-Serif" font-style="italic" font-size="32.00" fill="#29235c">text</text>
<text text-anchor="start" x="910.39" y="-1060.01" font-family="Helvetica,sans-Serif" font-size="32.00" fill="#29235c"> </text>
<text text-anchor="start" x="919.28" y="-1060.01" font-family="Helvetica,sans-Serif" font-weight="bold" font-size="32.00" fill="#29235c">(!)</text>
<polygon fill="#e7e2dd" stroke="transparent" points="621.48,-978.81 621.48,-1038.81 960.48,-1038.81 960.48,-978.81 621.48,-978.81"/>
<polygon fill="none" stroke="#29235c" points="621.48,-978.81 621.48,-1038.81 960.48,-1038.81 960.48,-978.81 621.48,-978.81"/>
<text text-anchor="start" x="632.48" y="-999.01" font-family="Helvetica,sans-Serif" font-size="32.00" fill="#29235c">title &#160;&#160;&#160;</text>
<text text-anchor="start" x="858.82" y="-1000.01" font-family="Helvetica,sans-Serif" font-style="italic" font-size="32.00" fill="#29235c">text</text>
<text text-anchor="start" x="910.39" y="-1000.01" font-family="Helvetica,sans-Serif" font-size="32.00" fill="#29235c"> </text>
<text text-anchor="start" x="919.28" y="-1000.01" font-family="Helvetica,sans-Serif" font-weight="bold" font-size="32.00" fill="#29235c">(!)</text>
<polygon fill="#e7e2dd" stroke="transparent" points="621.48,-918.81 621.48,-978.81 960.48,-978.81 960.48,-918.81 621.48,-918.81"/>
<polygon fill="none" stroke="#29235c" points="621.48,-918.81 621.48,-978.81 960.48,-978.81 960.48,-918.81 621.48,-918.81"/>
<text text-anchor="start" x="632.48" y="-939.01" font-family="Helvetica,sans-Serif" font-size="32.00" fill="#29235c">mtime &#160;&#160;&#160;</text>
<text text-anchor="start" x="812.59" y="-940.01" font-family="Helvetica,sans-Serif" font-style="italic" font-size="32.00" fill="#29235c">integer</text>
<text text-anchor="start" x="910.39" y="-940.01" font-family="Helvetica,sans-Serif" font-size="32.00" fill="#29235c"> </text>
<text text-anchor="start" x="919.28" y="-940.01" font-family="Helvetica,sans-Serif" font-weight="bold" font-size="32.00" fill="#29235c">(!)</text>
<polygon fill="#e7e2dd" stroke="transparent" points="621.48,-858.81 621.48,-918.81 960.48,-918.81 960.48,-858.81 621.48,-858.81"/>
<polygon fill="none" stroke="#29235c" points="621.48,-858.81 621.48,-918.81 960.48,-918.81 960.48,-858.81 621.48,-858.81"/>
<text text-anchor="start" x="632.48" y="-879.01" font-family="Helvetica,sans-Serif" font-size="32.00" fill="#29235c">hash &#160;&#160;&#160;</text>
<text text-anchor="start" x="858.82" y="-880.01" font-family="Helvetica,sans-Serif" font-style="italic" font-size="32.00" fill="#29235c">text</text>
<text text-anchor="start" x="910.39" y="-880.01" font-family="Helvetica,sans-Serif" font-size="32.00" fill="#29235c"> </text>
<text text-anchor="start" x="919.28" y="-880.01" font-family="Helvetica,sans-Serif" font-weight="bold" font-size="32.00" fill="#29235c">(!)</text>
<polygon fill="#e7e2dd" stroke="transparent" points="621.48,-798.81 621.48,-858.81 960.48,-858.81 960.48,-798.81 621.48,-798.81"/>
<polygon fill="none" stroke="#29235c" points="621.48,-798.81 621.48,-858.81 960.48,-858.81 960.48,-798.81 621.48,-798.81"/>
<text text-anchor="start" x="632.12" y="-819.01" font-family="Helvetica,sans-Serif" font-size="32.00" fill="#29235c">frontmatter_json &#160;&#160;&#160;</text>
<text text-anchor="start" x="898.2" y="-820.01" font-family="Helvetica,sans-Serif" font-style="italic" font-size="32.00" fill="#29235c">text</text>
<polygon fill="#e7e2dd" stroke="transparent" points="621.48,-738.81 621.48,-798.81 960.48,-798.81 960.48,-738.81 621.48,-738.81"/>
<polygon fill="none" stroke="#29235c" points="621.48,-738.81 621.48,-798.81 960.48,-798.81 960.48,-738.81 621.48,-738.81"/>
<text text-anchor="start" x="632.48" y="-759.01" font-family="Helvetica,sans-Serif" font-size="32.00" fill="#29235c">created_at &#160;&#160;&#160;</text>
<text text-anchor="start" x="858.82" y="-760.01" font-family="Helvetica,sans-Serif" font-style="italic" font-size="32.00" fill="#29235c">text</text>
<text text-anchor="start" x="910.39" y="-760.01" font-family="Helvetica,sans-Serif" font-size="32.00" fill="#29235c"> </text>
<text text-anchor="start" x="919.28" y="-760.01" font-family="Helvetica,sans-Serif" font-weight="bold" font-size="32.00" fill="#29235c">(!)</text>
<polygon fill="#e7e2dd" stroke="transparent" points="621.48,-678.81 621.48,-738.81 960.48,-738.81 960.48,-678.81 621.48,-678.81"/>
<polygon fill="none" stroke="#29235c" points="621.48,-678.81 621.48,-738.81 960.48,-738.81 960.48,-678.81 621.48,-678.81"/>
<text text-anchor="start" x="632.48" y="-699.01" font-family="Helvetica,sans-Serif" font-size="32.00" fill="#29235c">updated_at &#160;&#160;&#160;</text>
<text text-anchor="start" x="858.82" y="-700.01" font-family="Helvetica,sans-Serif" font-style="italic" font-size="32.00" fill="#29235c">text</text>
<text text-anchor="start" x="910.39" y="-700.01" font-family="Helvetica,sans-Serif" font-size="32.00" fill="#29235c"> </text>
<text text-anchor="start" x="919.28" y="-700.01" font-family="Helvetica,sans-Serif" font-weight="bold" font-size="32.00" fill="#29235c">(!)</text>
<polygon fill="none" stroke="#29235c" stroke-width="2" points="619.98,-677.81 619.98,-1219.81 960.98,-1219.81 960.98,-677.81 619.98,-677.81"/>
</g>
<!-- links -->
<g id="links" class="node">
<title>links</title>
<ellipse fill="none" stroke="black" stroke-width="0" cx="255.97" cy="-1407.81" rx="255.95" ry="427.19"/>
<polygon fill="#1d71b8" stroke="transparent" points="76.97,-1647.81 76.97,-1707.81 434.97,-1707.81 434.97,-1647.81 76.97,-1647.81"/>
<polygon fill="none" stroke="#29235c" points="76.97,-1647.81 76.97,-1707.81 434.97,-1707.81 434.97,-1647.81 76.97,-1647.81"/>
<text text-anchor="start" x="161.73" y="-1669.01" font-family="Helvetica,sans-Serif" font-weight="bold" font-size="32.00" fill="#ffffff"> &#160;&#160;&#160;&#160;&#160;&#160;links &#160;&#160;&#160;&#160;&#160;&#160;</text>
<polygon fill="#e7e2dd" stroke="transparent" points="76.97,-1587.81 76.97,-1647.81 434.97,-1647.81 434.97,-1587.81 76.97,-1587.81"/>
<polygon fill="none" stroke="#29235c" points="76.97,-1587.81 76.97,-1647.81 434.97,-1647.81 434.97,-1587.81 76.97,-1587.81"/>
<text text-anchor="start" x="87.97" y="-1609.01" font-family="Helvetica,sans-Serif" font-weight="bold" font-size="32.00" fill="#29235c">id</text>
<text text-anchor="start" x="112.86" y="-1609.01" font-family="Helvetica,sans-Serif" font-size="32.00" fill="#29235c"> &#160;&#160;&#160;</text>
<text text-anchor="start" x="326.17" y="-1609.01" font-family="Helvetica,sans-Serif" font-style="italic" font-size="32.00" fill="#29235c">integer</text>
<polygon fill="#e7e2dd" stroke="transparent" points="76.97,-1527.81 76.97,-1587.81 434.97,-1587.81 434.97,-1527.81 76.97,-1527.81"/>
<polygon fill="none" stroke="#29235c" points="76.97,-1527.81 76.97,-1587.81 434.97,-1587.81 434.97,-1527.81 76.97,-1527.81"/>
<text text-anchor="start" x="87.5" y="-1548.01" font-family="Helvetica,sans-Serif" font-size="32.00" fill="#29235c">src_note_id &#160;&#160;&#160;</text>
<text text-anchor="start" x="287.53" y="-1549.01" font-family="Helvetica,sans-Serif" font-style="italic" font-size="32.00" fill="#29235c">integer</text>
<text text-anchor="start" x="385.33" y="-1549.01" font-family="Helvetica,sans-Serif" font-size="32.00" fill="#29235c"> </text>
<text text-anchor="start" x="394.22" y="-1549.01" font-family="Helvetica,sans-Serif" font-weight="bold" font-size="32.00" fill="#29235c">(!)</text>
<polygon fill="#e7e2dd" stroke="transparent" points="76.97,-1467.81 76.97,-1527.81 434.97,-1527.81 434.97,-1467.81 76.97,-1467.81"/>
<polygon fill="none" stroke="#29235c" points="76.97,-1467.81 76.97,-1527.81 434.97,-1527.81 434.97,-1467.81 76.97,-1467.81"/>
<text text-anchor="start" x="87.97" y="-1488.01" font-family="Helvetica,sans-Serif" font-size="32.00" fill="#29235c">dst_text &#160;&#160;&#160;</text>
<text text-anchor="start" x="333.31" y="-1489.01" font-family="Helvetica,sans-Serif" font-style="italic" font-size="32.00" fill="#29235c">text</text>
<text text-anchor="start" x="384.88" y="-1489.01" font-family="Helvetica,sans-Serif" font-size="32.00" fill="#29235c"> </text>
<text text-anchor="start" x="393.77" y="-1489.01" font-family="Helvetica,sans-Serif" font-weight="bold" font-size="32.00" fill="#29235c">(!)</text>
<polygon fill="#e7e2dd" stroke="transparent" points="76.97,-1407.81 76.97,-1467.81 434.97,-1467.81 434.97,-1407.81 76.97,-1407.81"/>
<polygon fill="none" stroke="#29235c" points="76.97,-1407.81 76.97,-1467.81 434.97,-1467.81 434.97,-1407.81 76.97,-1407.81"/>
<text text-anchor="start" x="87.97" y="-1428.01" font-family="Helvetica,sans-Serif" font-size="32.00" fill="#29235c">dst_note_id &#160;&#160;&#160;</text>
<text text-anchor="start" x="326.17" y="-1429.01" font-family="Helvetica,sans-Serif" font-style="italic" font-size="32.00" fill="#29235c">integer</text>
<polygon fill="#e7e2dd" stroke="transparent" points="76.97,-1347.81 76.97,-1407.81 434.97,-1407.81 434.97,-1347.81 76.97,-1347.81"/>
<polygon fill="none" stroke="#29235c" points="76.97,-1347.81 76.97,-1407.81 434.97,-1407.81 434.97,-1347.81 76.97,-1347.81"/>
<text text-anchor="start" x="87.97" y="-1368.01" font-family="Helvetica,sans-Serif" font-size="32.00" fill="#29235c">kind &#160;&#160;&#160;</text>
<text text-anchor="start" x="333.31" y="-1369.01" font-family="Helvetica,sans-Serif" font-style="italic" font-size="32.00" fill="#29235c">text</text>
<text text-anchor="start" x="384.88" y="-1369.01" font-family="Helvetica,sans-Serif" font-size="32.00" fill="#29235c"> </text>
<text text-anchor="start" x="393.77" y="-1369.01" font-family="Helvetica,sans-Serif" font-weight="bold" font-size="32.00" fill="#29235c">(!)</text>
<polygon fill="#e7e2dd" stroke="transparent" points="76.97,-1287.81 76.97,-1347.81 434.97,-1347.81 434.97,-1287.81 76.97,-1287.81"/>
<polygon fill="none" stroke="#29235c" points="76.97,-1287.81 76.97,-1347.81 434.97,-1347.81 434.97,-1287.81 76.97,-1287.81"/>
<text text-anchor="start" x="87.97" y="-1308.01" font-family="Helvetica,sans-Serif" font-size="32.00" fill="#29235c">is_embed &#160;&#160;&#160;</text>
<text text-anchor="start" x="287.08" y="-1309.01" font-family="Helvetica,sans-Serif" font-style="italic" font-size="32.00" fill="#29235c">integer</text>
<text text-anchor="start" x="384.88" y="-1309.01" font-family="Helvetica,sans-Serif" font-size="32.00" fill="#29235c"> </text>
<text text-anchor="start" x="393.77" y="-1309.01" font-family="Helvetica,sans-Serif" font-weight="bold" font-size="32.00" fill="#29235c">(!)</text>
<polygon fill="#e7e2dd" stroke="transparent" points="76.97,-1227.81 76.97,-1287.81 434.97,-1287.81 434.97,-1227.81 76.97,-1227.81"/>
<polygon fill="none" stroke="#29235c" points="76.97,-1227.81 76.97,-1287.81 434.97,-1287.81 434.97,-1227.81 76.97,-1227.81"/>
<text text-anchor="start" x="87.97" y="-1248.01" font-family="Helvetica,sans-Serif" font-size="32.00" fill="#29235c">alias &#160;&#160;&#160;</text>
<text text-anchor="start" x="372.4" y="-1249.01" font-family="Helvetica,sans-Serif" font-style="italic" font-size="32.00" fill="#29235c">text</text>
<polygon fill="#e7e2dd" stroke="transparent" points="76.97,-1167.81 76.97,-1227.81 434.97,-1227.81 434.97,-1167.81 76.97,-1167.81"/>
<polygon fill="none" stroke="#29235c" points="76.97,-1167.81 76.97,-1227.81 434.97,-1227.81 434.97,-1167.81 76.97,-1167.81"/>
<text text-anchor="start" x="87.97" y="-1188.01" font-family="Helvetica,sans-Serif" font-size="32.00" fill="#29235c">heading_ref &#160;&#160;&#160;</text>
<text text-anchor="start" x="372.4" y="-1189.01" font-family="Helvetica,sans-Serif" font-style="italic" font-size="32.00" fill="#29235c">text</text>
<polygon fill="#e7e2dd" stroke="transparent" points="76.97,-1107.81 76.97,-1167.81 434.97,-1167.81 434.97,-1107.81 76.97,-1107.81"/>
<polygon fill="none" stroke="#29235c" points="76.97,-1107.81 76.97,-1167.81 434.97,-1167.81 434.97,-1107.81 76.97,-1107.81"/>
<text text-anchor="start" x="87.97" y="-1128.01" font-family="Helvetica,sans-Serif" font-size="32.00" fill="#29235c">block_ref &#160;&#160;&#160;</text>
<text text-anchor="start" x="372.4" y="-1129.01" font-family="Helvetica,sans-Serif" font-style="italic" font-size="32.00" fill="#29235c">text</text>
<polygon fill="none" stroke="#29235c" stroke-width="2" points="75.97,-1106.81 75.97,-1708.81 435.97,-1708.81 435.97,-1106.81 75.97,-1106.81"/>
</g>
<!-- links&#45;&gt;notes -->
<!-- links&#45;&gt;notes -->
<g id="edge2" class="edge">
<title>links:e&#45;&gt;notes:w</title>
<path fill="none" stroke="#29235c" stroke-width="3" d="M435.97,-1557.81C639.98,-1557.81 420.68,-1143.35 610.22,-1129.18"/>
<polygon fill="#29235c" stroke="#29235c" stroke-width="3" points="610.62,-1132.67 620.48,-1128.81 610.36,-1125.68 610.62,-1132.67"/>
<text text-anchor="middle" x="611.59" y="-1138.41" font-family="Helvetica,sans-Serif" font-size="32.00" fill="#29235c">1</text>
<text text-anchor="middle" x="429.75" y="-1567.41" font-family="Helvetica,sans-Serif" font-size="32.00" fill="#29235c">*</text>
</g>
<!-- links&#45;&gt;notes -->
<!-- links&#45;&gt;notes -->
<g id="edge4" class="edge">
<title>links:e&#45;&gt;notes:w</title>
<path fill="none" stroke="#29235c" stroke-width="3" d="M435.97,-1437.81C592.33,-1437.81 466.46,-1142.54 610.15,-1129.27"/>
<polygon fill="#29235c" stroke="#29235c" stroke-width="3" points="610.65,-1132.76 620.48,-1128.81 610.34,-1125.76 610.65,-1132.76"/>
<text text-anchor="middle" x="629.38" y="-1138.41" font-family="Helvetica,sans-Serif" font-size="32.00" fill="#29235c">1</text>
<text text-anchor="middle" x="429.75" y="-1447.41" font-family="Helvetica,sans-Serif" font-size="32.00" fill="#29235c">*</text>
</g>
<!-- links&#45;&gt;notes -->
<!-- links&#45;&gt;notes -->
<g id="edge10" class="edge">
<title>links:e&#45;&gt;notes:w</title>
<path fill="none" stroke="#29235c" stroke-width="3" d="M435.97,-1557.81C639.98,-1557.81 420.68,-1143.35 610.22,-1129.18"/>
<polygon fill="#29235c" stroke="#29235c" stroke-width="3" points="610.62,-1132.67 620.48,-1128.81 610.36,-1125.68 610.62,-1132.67"/>
<text text-anchor="middle" x="611.59" y="-1100.01" font-family="Helvetica,sans-Serif" font-size="32.00" fill="#29235c">1</text>
<text text-anchor="middle" x="429.75" y="-1529.01" font-family="Helvetica,sans-Serif" font-size="32.00" fill="#29235c">*</text>
</g>
<!-- links&#45;&gt;notes -->
<!-- links&#45;&gt;notes -->
<g id="edge12" class="edge">
<title>links:e&#45;&gt;notes:w</title>
<path fill="none" stroke="#29235c" stroke-width="3" d="M435.97,-1437.81C592.33,-1437.81 466.46,-1142.54 610.15,-1129.27"/>
<polygon fill="#29235c" stroke="#29235c" stroke-width="3" points="610.65,-1132.76 620.48,-1128.81 610.34,-1125.76 610.65,-1132.76"/>
<text text-anchor="middle" x="629.38" y="-1100.01" font-family="Helvetica,sans-Serif" font-size="32.00" fill="#29235c">1</text>
<text text-anchor="middle" x="429.75" y="-1409.01" font-family="Helvetica,sans-Serif" font-size="32.00" fill="#29235c">*</text>
</g>
<!-- tags -->
<g id="tags" class="node">
<title>tags</title>
<ellipse fill="none" stroke="black" stroke-width="0" cx="255.97" cy="-789.81" rx="213.59" ry="172.57"/>
<polygon fill="#1d71b8" stroke="transparent" points="106.97,-849.81 106.97,-909.81 404.97,-909.81 404.97,-849.81 106.97,-849.81"/>
<polygon fill="none" stroke="#29235c" points="106.97,-849.81 106.97,-909.81 404.97,-909.81 404.97,-849.81 106.97,-849.81"/>
<text text-anchor="start" x="163.49" y="-871.01" font-family="Helvetica,sans-Serif" font-weight="bold" font-size="32.00" fill="#ffffff"> &#160;&#160;&#160;&#160;&#160;&#160;tags &#160;&#160;&#160;&#160;&#160;&#160;</text>
<polygon fill="#e7e2dd" stroke="transparent" points="106.97,-789.81 106.97,-849.81 404.97,-849.81 404.97,-789.81 106.97,-789.81"/>
<polygon fill="none" stroke="#29235c" points="106.97,-789.81 106.97,-849.81 404.97,-849.81 404.97,-789.81 106.97,-789.81"/>
<text text-anchor="start" x="117.97" y="-811.01" font-family="Helvetica,sans-Serif" font-weight="bold" font-size="32.00" fill="#29235c">id</text>
<text text-anchor="start" x="142.86" y="-811.01" font-family="Helvetica,sans-Serif" font-size="32.00" fill="#29235c"> &#160;&#160;&#160;</text>
<text text-anchor="start" x="296.17" y="-811.01" font-family="Helvetica,sans-Serif" font-style="italic" font-size="32.00" fill="#29235c">integer</text>
<polygon fill="#e7e2dd" stroke="transparent" points="106.97,-729.81 106.97,-789.81 404.97,-789.81 404.97,-729.81 106.97,-729.81"/>
<polygon fill="none" stroke="#29235c" points="106.97,-729.81 106.97,-789.81 404.97,-789.81 404.97,-729.81 106.97,-729.81"/>
<text text-anchor="start" x="117.72" y="-750.01" font-family="Helvetica,sans-Serif" font-size="32.00" fill="#29235c">note_id &#160;&#160;&#160;</text>
<text text-anchor="start" x="257.53" y="-751.01" font-family="Helvetica,sans-Serif" font-style="italic" font-size="32.00" fill="#29235c">integer</text>
<text text-anchor="start" x="355.33" y="-751.01" font-family="Helvetica,sans-Serif" font-size="32.00" fill="#29235c"> </text>
<text text-anchor="start" x="364.22" y="-751.01" font-family="Helvetica,sans-Serif" font-weight="bold" font-size="32.00" fill="#29235c">(!)</text>
<polygon fill="#e7e2dd" stroke="transparent" points="106.97,-669.81 106.97,-729.81 404.97,-729.81 404.97,-669.81 106.97,-669.81"/>
<polygon fill="none" stroke="#29235c" points="106.97,-669.81 106.97,-729.81 404.97,-729.81 404.97,-669.81 106.97,-669.81"/>
<text text-anchor="start" x="117.97" y="-690.01" font-family="Helvetica,sans-Serif" font-size="32.00" fill="#29235c">tag &#160;&#160;&#160;</text>
<text text-anchor="start" x="303.31" y="-691.01" font-family="Helvetica,sans-Serif" font-style="italic" font-size="32.00" fill="#29235c">text</text>
<text text-anchor="start" x="354.88" y="-691.01" font-family="Helvetica,sans-Serif" font-size="32.00" fill="#29235c"> </text>
<text text-anchor="start" x="363.77" y="-691.01" font-family="Helvetica,sans-Serif" font-weight="bold" font-size="32.00" fill="#29235c">(!)</text>
<polygon fill="none" stroke="#29235c" stroke-width="2" points="105.97,-668.81 105.97,-910.81 405.97,-910.81 405.97,-668.81 105.97,-668.81"/>
</g>
<!-- tags&#45;&gt;notes -->
<!-- tags&#45;&gt;notes -->
<g id="edge6" class="edge">
<title>tags:e&#45;&gt;notes:w</title>
<path fill="none" stroke="#29235c" stroke-width="3" d="M405.97,-759.81C592.15,-759.81 436.78,-1115.25 610.29,-1128.44"/>
<polygon fill="#29235c" stroke="#29235c" stroke-width="3" points="610.36,-1131.94 620.48,-1128.81 610.62,-1124.95 610.36,-1131.94"/>
<text text-anchor="middle" x="611.59" y="-1138.41" font-family="Helvetica,sans-Serif" font-size="32.00" fill="#29235c">1</text>
<text text-anchor="middle" x="399.75" y="-769.41" font-family="Helvetica,sans-Serif" font-size="32.00" fill="#29235c">*</text>
</g>
<!-- tags&#45;&gt;notes -->
<!-- tags&#45;&gt;notes -->
<g id="edge14" class="edge">
<title>tags:e&#45;&gt;notes:w</title>
<path fill="none" stroke="#29235c" stroke-width="3" d="M405.97,-759.81C592.15,-759.81 436.78,-1115.25 610.29,-1128.44"/>
<polygon fill="#29235c" stroke="#29235c" stroke-width="3" points="610.36,-1131.94 620.48,-1128.81 610.62,-1124.95 610.36,-1131.94"/>
<text text-anchor="middle" x="629.38" y="-1138.41" font-family="Helvetica,sans-Serif" font-size="32.00" fill="#29235c">1</text>
<text text-anchor="middle" x="399.75" y="-731.01" font-family="Helvetica,sans-Serif" font-size="32.00" fill="#29235c">*</text>
</g>
<!-- chunks -->
<g id="chunks" class="node">
<title>chunks</title>
<ellipse fill="none" stroke="black" stroke-width="0" cx="255.97" cy="-299.81" rx="255.95" ry="299.63"/>
<polygon fill="#1d71b8" stroke="transparent" points="76.97,-449.81 76.97,-509.81 434.97,-509.81 434.97,-449.81 76.97,-449.81"/>
<polygon fill="none" stroke="#29235c" points="76.97,-449.81 76.97,-509.81 434.97,-509.81 434.97,-449.81 76.97,-449.81"/>
<text text-anchor="start" x="143.04" y="-471.01" font-family="Helvetica,sans-Serif" font-weight="bold" font-size="32.00" fill="#ffffff"> &#160;&#160;&#160;&#160;&#160;&#160;chunks &#160;&#160;&#160;&#160;&#160;&#160;</text>
<polygon fill="#e7e2dd" stroke="transparent" points="76.97,-389.81 76.97,-449.81 434.97,-449.81 434.97,-389.81 76.97,-389.81"/>
<polygon fill="none" stroke="#29235c" points="76.97,-389.81 76.97,-449.81 434.97,-449.81 434.97,-389.81 76.97,-389.81"/>
<text text-anchor="start" x="87.97" y="-411.01" font-family="Helvetica,sans-Serif" font-weight="bold" font-size="32.00" fill="#29235c">id</text>
<text text-anchor="start" x="112.86" y="-411.01" font-family="Helvetica,sans-Serif" font-size="32.00" fill="#29235c"> &#160;&#160;&#160;</text>
<text text-anchor="start" x="326.17" y="-411.01" font-family="Helvetica,sans-Serif" font-style="italic" font-size="32.00" fill="#29235c">integer</text>
<polygon fill="#e7e2dd" stroke="transparent" points="76.97,-329.81 76.97,-389.81 434.97,-389.81 434.97,-329.81 76.97,-329.81"/>
<polygon fill="none" stroke="#29235c" points="76.97,-329.81 76.97,-389.81 434.97,-389.81 434.97,-329.81 76.97,-329.81"/>
<text text-anchor="start" x="87.97" y="-350.01" font-family="Helvetica,sans-Serif" font-size="32.00" fill="#29235c">note_id &#160;&#160;&#160;</text>
<text text-anchor="start" x="287.08" y="-351.01" font-family="Helvetica,sans-Serif" font-style="italic" font-size="32.00" fill="#29235c">integer</text>
<text text-anchor="start" x="384.88" y="-351.01" font-family="Helvetica,sans-Serif" font-size="32.00" fill="#29235c"> </text>
<text text-anchor="start" x="393.77" y="-351.01" font-family="Helvetica,sans-Serif" font-weight="bold" font-size="32.00" fill="#29235c">(!)</text>
<polygon fill="#e7e2dd" stroke="transparent" points="76.97,-269.81 76.97,-329.81 434.97,-329.81 434.97,-269.81 76.97,-269.81"/>
<polygon fill="none" stroke="#29235c" points="76.97,-269.81 76.97,-329.81 434.97,-329.81 434.97,-269.81 76.97,-269.81"/>
<text text-anchor="start" x="87.97" y="-290.01" font-family="Helvetica,sans-Serif" font-size="32.00" fill="#29235c">heading_path &#160;&#160;&#160;</text>
<text text-anchor="start" x="372.4" y="-291.01" font-family="Helvetica,sans-Serif" font-style="italic" font-size="32.00" fill="#29235c">text</text>
<polygon fill="#e7e2dd" stroke="transparent" points="76.97,-209.81 76.97,-269.81 434.97,-269.81 434.97,-209.81 76.97,-209.81"/>
<polygon fill="none" stroke="#29235c" points="76.97,-209.81 76.97,-269.81 434.97,-269.81 434.97,-209.81 76.97,-209.81"/>
<text text-anchor="start" x="87.97" y="-230.01" font-family="Helvetica,sans-Serif" font-size="32.00" fill="#29235c">text &#160;&#160;&#160;</text>
<text text-anchor="start" x="333.31" y="-231.01" font-family="Helvetica,sans-Serif" font-style="italic" font-size="32.00" fill="#29235c">text</text>
<text text-anchor="start" x="384.88" y="-231.01" font-family="Helvetica,sans-Serif" font-size="32.00" fill="#29235c"> </text>
<text text-anchor="start" x="393.77" y="-231.01" font-family="Helvetica,sans-Serif" font-weight="bold" font-size="32.00" fill="#29235c">(!)</text>
<polygon fill="#e7e2dd" stroke="transparent" points="76.97,-149.81 76.97,-209.81 434.97,-209.81 434.97,-149.81 76.97,-149.81"/>
<polygon fill="none" stroke="#29235c" points="76.97,-149.81 76.97,-209.81 434.97,-209.81 434.97,-149.81 76.97,-149.81"/>
<text text-anchor="start" x="87.97" y="-170.01" font-family="Helvetica,sans-Serif" font-size="32.00" fill="#29235c">byte_offset &#160;&#160;&#160;</text>
<text text-anchor="start" x="287.08" y="-171.01" font-family="Helvetica,sans-Serif" font-style="italic" font-size="32.00" fill="#29235c">integer</text>
<text text-anchor="start" x="384.88" y="-171.01" font-family="Helvetica,sans-Serif" font-size="32.00" fill="#29235c"> </text>
<text text-anchor="start" x="393.77" y="-171.01" font-family="Helvetica,sans-Serif" font-weight="bold" font-size="32.00" fill="#29235c">(!)</text>
<polygon fill="#e7e2dd" stroke="transparent" points="76.97,-89.81 76.97,-149.81 434.97,-149.81 434.97,-89.81 76.97,-89.81"/>
<polygon fill="none" stroke="#29235c" points="76.97,-89.81 76.97,-149.81 434.97,-149.81 434.97,-89.81 76.97,-89.81"/>
<text text-anchor="start" x="87.48" y="-110.01" font-family="Helvetica,sans-Serif" font-size="32.00" fill="#29235c">byte_length &#160;&#160;&#160;</text>
<text text-anchor="start" x="287.53" y="-111.01" font-family="Helvetica,sans-Serif" font-style="italic" font-size="32.00" fill="#29235c">integer</text>
<text text-anchor="start" x="385.33" y="-111.01" font-family="Helvetica,sans-Serif" font-size="32.00" fill="#29235c"> </text>
<text text-anchor="start" x="394.22" y="-111.01" font-family="Helvetica,sans-Serif" font-weight="bold" font-size="32.00" fill="#29235c">(!)</text>
<polygon fill="none" stroke="#29235c" stroke-width="2" points="75.97,-88.81 75.97,-510.81 435.97,-510.81 435.97,-88.81 75.97,-88.81"/>
</g>
<!-- chunks&#45;&gt;notes -->
<!-- chunks&#45;&gt;notes -->
<g id="edge8" class="edge">
<title>chunks:e&#45;&gt;notes:w</title>
<path fill="none" stroke="#29235c" stroke-width="3" d="M435.97,-359.81C608.11,-359.81 451.45,-1097.6 610.1,-1127.86"/>
<polygon fill="#29235c" stroke="#29235c" stroke-width="3" points="610.2,-1131.38 620.48,-1128.81 610.85,-1124.41 610.2,-1131.38"/>
<text text-anchor="middle" x="611.59" y="-1100.01" font-family="Helvetica,sans-Serif" font-size="32.00" fill="#29235c">1</text>
<text text-anchor="middle" x="429.75" y="-369.41" font-family="Helvetica,sans-Serif" font-size="32.00" fill="#29235c">*</text>
</g>
<!-- chunks&#45;&gt;notes -->
<!-- chunks&#45;&gt;notes -->
<g id="edge16" class="edge">
<title>chunks:e&#45;&gt;notes:w</title>
<path fill="none" stroke="#29235c" stroke-width="3" d="M435.97,-359.81C608.11,-359.81 451.45,-1097.6 610.1,-1127.86"/>
<polygon fill="#29235c" stroke="#29235c" stroke-width="3" points="610.2,-1131.38 620.48,-1128.81 610.85,-1124.41 610.2,-1131.38"/>
<text text-anchor="middle" x="629.38" y="-1100.01" font-family="Helvetica,sans-Serif" font-size="32.00" fill="#29235c">1</text>
<text text-anchor="middle" x="429.75" y="-331.01" font-family="Helvetica,sans-Serif" font-size="32.00" fill="#29235c">*</text>
</g>
<!-- fts_chunks -->
<g id="fts_chunks" class="node">
<title>fts_chunks</title>
<ellipse fill="none" stroke="black" stroke-width="0" cx="255.97" cy="-2067.81" rx="216.25" ry="214.92"/>
<polygon fill="#1d71b8" stroke="transparent" points="104.97,-2157.81 104.97,-2217.81 406.97,-2217.81 406.97,-2157.81 104.97,-2157.81"/>
<polygon fill="none" stroke="#29235c" points="104.97,-2157.81 104.97,-2217.81 406.97,-2217.81 406.97,-2157.81 104.97,-2157.81"/>
<text text-anchor="start" x="117.25" y="-2179.01" font-family="Helvetica,sans-Serif" font-weight="bold" font-size="32.00" fill="#ffffff"> &#160;&#160;&#160;&#160;&#160;&#160;fts_chunks &#160;&#160;&#160;&#160;&#160;&#160;</text>
<polygon fill="#e7e2dd" stroke="transparent" points="104.97,-2097.81 104.97,-2157.81 406.97,-2157.81 406.97,-2097.81 104.97,-2097.81"/>
<polygon fill="none" stroke="#29235c" points="104.97,-2097.81 104.97,-2157.81 406.97,-2157.81 406.97,-2097.81 104.97,-2097.81"/>
<text text-anchor="start" x="115.97" y="-2118.01" font-family="Helvetica,sans-Serif" font-size="32.00" fill="#29235c">rowid &#160;&#160;&#160;</text>
<text text-anchor="start" x="298.17" y="-2119.01" font-family="Helvetica,sans-Serif" font-style="italic" font-size="32.00" fill="#29235c">integer</text>
<polygon fill="#e7e2dd" stroke="transparent" points="104.97,-2037.81 104.97,-2097.81 406.97,-2097.81 406.97,-2037.81 104.97,-2037.81"/>
<polygon fill="none" stroke="#29235c" points="104.97,-2037.81 104.97,-2097.81 406.97,-2097.81 406.97,-2037.81 104.97,-2037.81"/>
<text text-anchor="start" x="115.97" y="-2058.01" font-family="Helvetica,sans-Serif" font-size="32.00" fill="#29235c">note_id &#160;&#160;&#160;</text>
<text text-anchor="start" x="298.17" y="-2059.01" font-family="Helvetica,sans-Serif" font-style="italic" font-size="32.00" fill="#29235c">integer</text>
<polygon fill="#e7e2dd" stroke="transparent" points="104.97,-1977.81 104.97,-2037.81 406.97,-2037.81 406.97,-1977.81 104.97,-1977.81"/>
<polygon fill="none" stroke="#29235c" points="104.97,-1977.81 104.97,-2037.81 406.97,-2037.81 406.97,-1977.81 104.97,-1977.81"/>
<text text-anchor="start" x="115.75" y="-1998.01" font-family="Helvetica,sans-Serif" font-size="32.00" fill="#29235c">heading_path &#160;&#160;&#160;</text>
<text text-anchor="start" x="344.69" y="-1999.01" font-family="Helvetica,sans-Serif" font-style="italic" font-size="32.00" fill="#29235c">text</text>
<polygon fill="#e7e2dd" stroke="transparent" points="104.97,-1917.81 104.97,-1977.81 406.97,-1977.81 406.97,-1917.81 104.97,-1917.81"/>
<polygon fill="none" stroke="#29235c" points="104.97,-1917.81 104.97,-1977.81 406.97,-1977.81 406.97,-1917.81 104.97,-1917.81"/>
<text text-anchor="start" x="115.97" y="-1938.01" font-family="Helvetica,sans-Serif" font-size="32.00" fill="#29235c">text &#160;&#160;&#160;</text>
<text text-anchor="start" x="344.4" y="-1939.01" font-family="Helvetica,sans-Serif" font-style="italic" font-size="32.00" fill="#29235c">text</text>
<polygon fill="none" stroke="#29235c" stroke-width="2" points="103.97,-1916.81 103.97,-2218.81 407.97,-2218.81 407.97,-1916.81 103.97,-1916.81"/>
</g>
</g>
</svg>
